PathFileType	4	(X/Y/Z) flx_0kg_2.trc																										
DataRate	CameraRate	NumFrames	NumMarkers	Units	OrigDataRate	OrigDataStartFrame	OrigNumFrames																					
100	100	54	9	mm	100	319	848																					
Frame#	Time	gu			centelbow			EpL			centpxt8			centijc7			ij			ts			aa			ai		
		X1	Y1	Z1	X2	Y2	Z2	X3	Y3	Z3	X4	Y4	Z4	X5	Y5	Z5	X6	Y6	Z6	X7	Y7	Z7	X8	Y8	Z8	X9	Y9	Z9  
318	3.18	-96.06	58.743	106.89	21.868	255.35	198.667	-4.299	270.953	188.12	-46.816	-153.158	-8.669	-46.816	31.938	-8.669	0	0	0	-146.509	-20.514	57.324	-126.071	80.821	116.807	-117.68	-75.856	152.149
319	3.19	-96.022	58.484	106.866	20.581	255.901	198.597	-5.634	271.345	187.932	-46.816	-153.158	-8.669	-46.816	31.938	-8.669	0	0	0	-145.824	-20.895	57.372	-126.11	80.718	116.625	-116.941	-75.81	152.429
320	3.2	-96.035	58.369	107.184	19.163	256.625	198.88	-7.101	271.9	188.095	-46.816	-153.158	-8.669	-46.816	31.938	-8.669	0	0	0	-144.954	-20.791	57.333	-126.009	81.094	116.37	-115.934	-75.283	152.592
321	3.21	-96.145	58.269	107.613	17.689	257.346	199.234	-8.62	272.456	188.33	-46.816	-153.158	-8.669	-46.816	31.938	-8.669	0	0	0	-144.278	-20.612	57.39	-126.065	81.52	116.23	-115.126	-74.71	152.832
322	3.22	-96.451	58.146	107.742	16.117	257.98	199.279	-10.236	272.935	188.265	-46.816	-153.158	-8.669	-46.816	31.938	-8.669	0	0	0	-144.143	-20.67	57.549	-126.563	81.685	116.193	-114.917	-74.405	153.174
323	3.23	-96.781	58.28	107.394	14.544	258.865	198.811	-11.858	273.663	187.704	-46.816	-153.158	-8.669	-46.816	31.938	-8.669	0	0	0	-144.286	-20.836	57.594	-127.246	81.74	116.01	-114.991	-74.205	153.402
324	3.24	-96.856	58.798	106.803	13.173	260.199	197.994	-13.29	274.825	186.806	-46.816	-153.158	-8.669	-46.816	31.938	-8.669	0	0	0	-144.101	-20.947	57.422	-127.552	81.86	115.574	-114.687	-73.93	153.408
325	3.25	-96.745	59.451	106.306	11.952	261.714	197.185	-14.578	276.159	185.916	-46.816	-153.158	-8.669	-46.816	31.938	-8.669	0	0	0	-143.529	-21.046	57.168	-127.462	81.989	115.05	-113.97	-73.639	153.323
326	3.26	-96.731	60.004	106.064	10.637	263.104	196.653	-15.952	277.37	185.297	-46.816	-153.158	-8.669	-46.816	31.938	-8.669	0	0	0	-143.069	-21.152	57.008	-127.5	82.095	114.649	-113.375	-73.379	153.321
327	3.27	-96.978	60.347	106.029	9.122	264.211	196.398	-17.516	278.311	184.951	-46.816	-153.158	-8.669	-46.816	31.938	-8.669	0	0	0	-142.94	-21.209	57.048	-127.889	82.229	114.485	-113.134	-73.099	153.509
328	3.28	-97.38	60.423	105.968	7.568	264.973	196.132	-19.111	278.924	184.598	-46.816	-153.158	-8.669	-46.816	31.938	-8.669	0	0	0	-142.889	-21.263	57.256	-128.342	82.35	114.506	-112.977	-72.837	153.853
329	3.29	-97.585	60.327	105.666	6.288	265.536	195.578	-20.432	279.343	183.966	-46.816	-153.158	-8.669	-46.816	31.938	-8.669	0	0	0	-142.696	-21.425	57.407	-128.602	82.354	114.468	-112.654	-72.695	154.126
330	3.3	-97.356	60.274	105.151	5.426	266.177	194.728	-21.342	279.832	183.045	-46.816	-153.158	-8.669	-46.816	31.938	-8.669	0	0	0	-142.334	-21.67	57.319	-128.656	82.266	114.196	-112.132	-72.649	154.141
331	3.31	-96.942	60.398	104.565	4.701	267.039	193.742	-22.122	280.529	181.997	-46.816	-153.158	-8.669	-46.816	31.938	-8.669	0	0	0	-141.837	-21.897	57.113	-128.578	82.188	113.817	-111.48	-72.594	154.036
332	3.32	-96.886	60.703	104.013	3.57	268.098	192.785	-23.311	281.417	180.979	-46.816	-153.158	-8.669	-46.816	31.938	-8.669	0	0	0	-141.359	-22.104	57.021	-128.551	82.137	113.541	-110.891	-72.502	154.064
333	3.33	-97.341	61.091	103.597	1.872	269.24	192	-25.064	282.386	180.123	-46.816	-153.158	-8.669	-46.816	31.938	-8.669	0	0	0	-141.02	-22.286	57.051	-128.702	82.129	113.358	-110.474	-72.348	154.244
334	3.34	-97.815	61.331	103.351	0.146	270.207	191.435	-26.834	283.184	179.472	-46.816	-153.158	-8.669	-46.816	31.938	-8.669	0	0	0	-140.706	-22.35	57.018	-128.925	82.259	113.08	-110.082	-72.034	154.38
335	3.35	-97.837	61.307	103.155	-1.085	270.853	190.982	-28.097	283.673	178.925	-46.816	-153.158	-8.669	-46.816	31.938	-8.669	0	0	0	-140.389	-22.352	56.83	-129.186	82.465	112.621	-109.686	-71.624	154.376
336	3.36	-97.535	61.175	102.924	-1.933	271.338	190.538	-28.972	284.012	178.387	-46.816	-153.158	-8.669	-46.816	31.938	-8.669	0	0	0	-140.223	-22.554	56.624	-129.603	82.475	112.131	-109.487	-71.402	154.372
337	3.37	-97.269	61.075	102.723	-2.762	271.826	190.114	-29.824	284.36	177.866	-46.816	-153.158	-8.669	-46.816	31.938	-8.669	0	0	0	-140.169	-22.978	56.536	-130.1	82.256	111.757	-109.457	-71.414	154.496
338	3.38	-97.221	61.041	102.554	-3.784	272.388	189.652	-30.865	284.783	177.306	-46.816	-153.158	-8.669	-46.816	31.938	-8.669	0	0	0	-140.026	-23.288	56.535	-130.481	82.144	111.468	-109.35	-71.32	154.706
339	3.39	-97.467	61.119	102.321	-5.123	273.096	189.054	-32.225	285.343	176.607	-46.816	-153.158	-8.669	-46.816	31.938	-8.669	0	0	0	-139.801	-23.35	56.582	-130.767	82.283	111.216	-109.153	-70.969	154.963
340	3.4	-97.979	61.243	102.059	-6.744	273.865	188.387	-33.865	285.961	175.833	-46.816	-153.158	-8.669	-46.816	31.938	-8.669	0	0	0	-139.596	-23.414	56.7	-131.051	82.421	111.021	-108.982	-70.615	155.293
341	3.41	-98.506	61.253	101.866	-8.38	274.514	187.781	-35.514	286.46	175.114	-46.816	-153.158	-8.669	-46.816	31.938	-8.669	0	0	0	-139.292	-23.631	56.85	-131.239	82.409	110.845	-108.726	-70.405	155.661
342	3.42	-98.758	61.131	101.732	-9.761	275.037	187.22	-36.908	286.83	174.438	-46.816	-153.158	-8.669	-46.816	31.938	-8.669	0	0	0	-138.794	-23.932	56.953	-131.287	82.317	110.615	-108.276	-70.257	155.99
343	3.43	-98.706	60.982	101.591	-10.841	275.547	186.598	-38.006	287.181	173.709	-46.816	-153.158	-8.669	-46.816	31.938	-8.669	0	0	0	-138.328	-24.282	57.008	-131.431	82.177	110.335	-107.852	-70.141	156.275
344	3.44	-98.591	60.928	101.412	-11.815	276.151	185.87	-39.002	287.627	172.886	-46.816	-153.158	-8.669	-46.816	31.938	-8.669	0	0	0	-138.138	-24.584	57.038	-131.865	82.082	110.027	-107.681	-69.971	156.527
345	3.45	-98.673	61.075	101.212	-12.952	276.928	185.137	-40.163	288.248	172.067	-46.816	-153.158	-8.669	-46.816	31.938	-8.669	0	0	0	-138.114	-24.629	57.035	-132.44	82.24	109.683	-107.637	-69.544	156.731
346	3.46	-98.99	61.353	101.118	-14.335	277.78	184.648	-41.563	288.953	171.488	-46.816	-153.158	-8.669	-46.816	31.938	-8.669	0	0	0	-137.928	-24.439	57.072	-132.811	82.615	109.399	-107.418	-68.914	156.955
347	3.47	-99.336	61.473	101.293	-15.716	278.383	184.612	-42.943	289.43	171.342	-46.816	-153.158	-8.669	-46.816	31.938	-8.669	0	0	0	-137.446	-24.303	57.274	-132.842	82.903	109.337	-106.951	-68.404	157.328
348	3.48	-99.488	61.282	101.643	-16.808	278.599	184.838	-44.016	289.541	171.444	-46.816	-153.158	-8.669	-46.816	31.938	-8.669	0	0	0	-136.934	-24.358	57.617	-132.803	82.965	109.478	-106.493	-68.158	157.82
349	3.49	-99.387	61.019	101.742	-17.565	278.727	184.764	-44.762	289.567	171.265	-46.816	-153.158	-8.669	-46.816	31.938	-8.669	0	0	0	-136.652	-24.547	57.931	-132.94	82.869	109.63	-106.234	-68.094	158.251
350	3.5	-99.124	60.931	101.361	-18.101	279.018	184.173	-45.305	289.755	170.604	-46.816	-153.158	-8.669	-46.816	31.938	-8.669	0	0	0	-136.508	-24.788	58.087	-133.136	82.707	109.644	-106.053	-68.117	158.49
351	3.51	-98.878	60.921	100.843	-18.559	279.321	183.513	-45.776	289.968	169.901	-46.816	-153.158	-8.669	-46.816	31.938	-8.669	0	0	0	-136.338	-24.929	58.07	-133.234	82.635	109.5	-105.812	-68.066	158.534
352	3.52	-98.754	60.822	100.615	-19.011	279.453	183.234	-46.236	290.031	169.584	-46.816	-153.158	-8.669	-46.816	31.938	-8.669	0	0	0	-136.096	-24.9	57.946	-133.223	82.729	109.254	-105.504	-67.861	158.465
353	3.53	-98.694	60.703	100.646	-19.419	279.523	183.214	-46.649	290.044	169.531	-46.816	-153.158	-8.669	-46.816	31.938	-8.669	0	0	0	-135.792	-24.865	57.763	-133.124	82.828	108.948	-105.157	-67.655	158.341
354	3.54	-98.662	60.717	100.642	-19.792	279.722	183.108	-47.032	290.19	169.403	-46.816	-153.158	-8.669	-46.816	31.938	-8.669	0	0	0	-135.573	-24.998	57.536	-133.092	82.759	108.595	-104.927	-67.625	158.181
355	3.55	-98.721	60.867	100.483	-20.223	280.043	182.851	-47.478	290.459	169.136	-46.816	-153.158	-8.669	-46.816	31.938	-8.669	0	0	0	-135.65	-25.287	57.337	-133.364	82.53	108.279	-105.031	-67.759	158.055
356	3.56	-98.85	61.037	100.266	-20.699	280.356	182.582	-47.971	290.726	168.866	-46.816	-153.158	-8.669	-46.816	31.938	-8.669	0	0	0	-135.942	-25.586	57.243	-133.886	82.285	108.08	-105.374	-67.909	158.04
357	3.57	-98.972	61.154	100.109	-21.115	280.591	182.389	-48.403	290.921	168.676	-46.816	-153.158	-8.669	-46.816	31.938	-8.669	0	0	0	-136.067	-25.768	57.239	-134.269	82.156	107.973	-105.555	-67.938	158.117
358	3.58	-99.128	61.192	100.042	-21.508	280.734	182.266	-48.808	291.031	168.55	-46.816	-153.158	-8.669	-46.816	31.938	-8.669	0	0	0	-135.818	-25.805	57.248	-134.281	82.175	107.872	-105.363	-67.815	158.21
359	3.59	-99.379	61.122	100.011	-22.017	280.782	182.164	-49.324	291.043	168.437	-46.816	-153.158	-8.669	-46.816	31.938	-8.669	0	0	0	-135.391	-25.755	57.248	-134.114	82.283	107.754	-105.001	-67.6	158.298
360	3.6	-99.628	60.995	99.992	-22.649	280.815	182.077	-49.962	291.029	168.325	-46.816	-153.158	-8.669	-46.816	31.938	-8.669	0	0	0	-135.046	-25.723	57.291	-134.045	82.376	107.673	-104.748	-67.396	158.439
361	3.61	-99.728	60.952	100.024	-23.253	280.973	182.04	-50.571	291.126	168.254	-46.816	-153.158	-8.669	-46.816	31.938	-8.669	0	0	0	-134.794	-25.802	57.44	-134.095	82.36	107.692	-104.621	-67.295	158.699
362	3.62	-99.683	61.024	100.091	-23.706	281.247	182.028	-51.03	291.338	168.207	-46.816	-153.158	-8.669	-46.816	31.938	-8.669	0	0	0	-134.549	-25.993	57.682	-134.158	82.233	107.798	-104.525	-67.303	159.061
363	3.63	-99.653	61.095	100.118	-24.07	281.481	181.984	-51.397	291.523	168.133	-46.816	-153.158	-8.669	-46.816	31.938	-8.669	0	0	0	-134.36	-26.193	57.86	-134.248	82.098	107.838	-104.48	-67.325	159.354
364	3.64	-99.776	61.125	100.076	-24.501	281.622	181.925	-51.825	291.63	168.044	-46.816	-153.158	-8.669	-46.816	31.938	-8.669	0	0	0	-134.313	-26.278	57.813	-134.44	82.07	107.668	-104.551	-67.253	159.405
365	3.65	-99.982	61.172	99.973	-25.003	281.745	181.888	-52.32	291.727	167.975	-46.816	-153.158	-8.669	-46.816	31.938	-8.669	0	0	0	-134.332	-26.21	57.627	-134.661	82.179	107.392	-104.668	-67.065	159.296
366	3.66	-100.106	61.242	99.822	-25.437	281.88	181.845	-52.745	291.837	167.898	-46.816	-153.158	-8.669	-46.816	31.938	-8.669	0	0	0	-134.243	-26.079	57.571	-134.747	82.338	107.275	-104.693	-66.849	159.307
367	3.67	-100.105	61.285	99.681	-25.743	282.001	181.774	-53.043	291.931	167.79	-46.816	-153.158	-8.669	-46.816	31.938	-8.669	0	0	0	-134.03	-26.03	57.72	-134.684	82.413	107.364	-104.619	-66.726	159.526
368	3.68	-100.093	61.277	99.614	-26.037	282.094	181.708	-53.327	291.994	167.685	-46.816	-153.158	-8.669	-46.816	31.938	-8.669	0	0	0	-133.843	-26.097	57.871	-134.641	82.382	107.435	-104.564	-66.701	159.752
369	3.69	-100.195	61.269	99.601	-26.465	282.205	181.67	-53.746	292.071	167.604	-46.816	-153.158	-8.669	-46.816	31.938	-8.669	0	0	0	-133.791	-26.138	57.863	-134.759	82.379	107.339	-104.609	-66.632	159.816
370	3.7	-100.384	61.386	99.599	-27.008	282.445	181.654	-54.278	292.274	167.543	-46.816	-153.158	-8.669	-46.816	31.938	-8.669	0	0	0	-133.818	-26.022	57.768	-134.989	82.53	107.164	-104.705	-66.404	159.785
371	3.71	-100.525	61.635	99.622	-27.483	282.803	181.683	-54.742	292.599	167.527	-46.816	-153.158	-8.669	-46.816	31.938	-8.669	0	0	0	-133.823	-25.839	57.729	-135.185	82.74	107.059	-104.784	-66.125	159.804
